<mxfile host="app.diagrams.net" agent="Mozilla/5.0 (Windows NT 10.0; Win64; x64) AppleWebKit/537.36 (KHTML, like Gecko) Chrome/137.0.0.0 Safari/537.36" version="27.1.1">
  <diagram name="MER Sistema de Mérito" id="0">
    <mxGraphModel dx="2011" dy="1038" grid="1" gridSize="10" guides="1" tooltips="1" connect="1" arrows="1" fold="1" page="1" pageScale="1" pageWidth="980" pageHeight="1390" math="0" shadow="0">
      <root>
        <mxCell id="0" />
        <mxCell id="1" parent="0" />
        <mxCell id="gT0HJ77mpQGrngc1Bmo7-14" value="" style="rounded=0;whiteSpace=wrap;html=1;" vertex="1" parent="1">
          <mxGeometry x="60" y="430" width="670" height="170" as="geometry" />
        </mxCell>
        <mxCell id="gT0HJ77mpQGrngc1Bmo7-1" value="Usuario" style="shape=umlActor;verticalLabelPosition=bottom;verticalAlign=top;html=1;" vertex="1" parent="1">
          <mxGeometry x="90" y="250" width="30" height="60" as="geometry" />
        </mxCell>
        <mxCell id="gT0HJ77mpQGrngc1Bmo7-2" value="Admin" style="shape=umlActor;verticalLabelPosition=bottom;verticalAlign=top;html=1;" vertex="1" parent="1">
          <mxGeometry x="250" y="250" width="30" height="60" as="geometry" />
        </mxCell>
        <mxCell id="gT0HJ77mpQGrngc1Bmo7-3" value="Sistema" style="rounded=0;whiteSpace=wrap;html=1;" vertex="1" parent="1">
          <mxGeometry x="350" y="260" width="110" height="40" as="geometry" />
        </mxCell>
        <mxCell id="gT0HJ77mpQGrngc1Bmo7-4" value="" style="endArrow=none;dashed=1;html=1;dashPattern=1 3;strokeWidth=2;rounded=0;" edge="1" parent="1">
          <mxGeometry width="50" height="50" relative="1" as="geometry">
            <mxPoint x="100" y="940" as="sourcePoint" />
            <mxPoint x="100" y="340" as="targetPoint" />
          </mxGeometry>
        </mxCell>
        <mxCell id="gT0HJ77mpQGrngc1Bmo7-5" value="" style="endArrow=classic;html=1;rounded=0;" edge="1" parent="1">
          <mxGeometry width="50" height="50" relative="1" as="geometry">
            <mxPoint x="100" y="390" as="sourcePoint" />
            <mxPoint x="400" y="390" as="targetPoint" />
          </mxGeometry>
        </mxCell>
        <mxCell id="gT0HJ77mpQGrngc1Bmo7-6" value="realizarLogin(String email, String senha)" style="text;html=1;align=center;verticalAlign=middle;resizable=0;points=[];autosize=1;strokeColor=none;fillColor=none;" vertex="1" parent="1">
          <mxGeometry x="120" y="360" width="240" height="30" as="geometry" />
        </mxCell>
        <mxCell id="gT0HJ77mpQGrngc1Bmo7-7" value="" style="endArrow=none;dashed=1;html=1;dashPattern=1 3;strokeWidth=2;rounded=0;" edge="1" parent="1">
          <mxGeometry width="50" height="50" relative="1" as="geometry">
            <mxPoint x="410" y="940" as="sourcePoint" />
            <mxPoint x="404.5" y="300" as="targetPoint" />
          </mxGeometry>
        </mxCell>
        <mxCell id="gT0HJ77mpQGrngc1Bmo7-8" value="" style="endArrow=none;dashed=1;html=1;dashPattern=1 3;strokeWidth=2;rounded=0;" edge="1" parent="1">
          <mxGeometry width="50" height="50" relative="1" as="geometry">
            <mxPoint x="266" y="359" as="sourcePoint" />
            <mxPoint x="266" y="330" as="targetPoint" />
          </mxGeometry>
        </mxCell>
        <mxCell id="gT0HJ77mpQGrngc1Bmo7-9" value="Banco de Dados" style="rounded=0;whiteSpace=wrap;html=1;" vertex="1" parent="1">
          <mxGeometry x="600" y="260" width="110" height="40" as="geometry" />
        </mxCell>
        <mxCell id="gT0HJ77mpQGrngc1Bmo7-10" value="" style="endArrow=classic;html=1;rounded=0;" edge="1" parent="1">
          <mxGeometry width="50" height="50" relative="1" as="geometry">
            <mxPoint x="410" y="400" as="sourcePoint" />
            <mxPoint x="650" y="400" as="targetPoint" />
          </mxGeometry>
        </mxCell>
        <mxCell id="gT0HJ77mpQGrngc1Bmo7-12" value="verificarCredenciais()" style="text;html=1;align=center;verticalAlign=middle;resizable=0;points=[];autosize=1;strokeColor=none;fillColor=none;" vertex="1" parent="1">
          <mxGeometry x="460" y="370" width="140" height="30" as="geometry" />
        </mxCell>
        <mxCell id="gT0HJ77mpQGrngc1Bmo7-13" value="" style="endArrow=none;dashed=1;html=1;dashPattern=1 3;strokeWidth=2;rounded=0;" edge="1" parent="1">
          <mxGeometry width="50" height="50" relative="1" as="geometry">
            <mxPoint x="655" y="940" as="sourcePoint" />
            <mxPoint x="654.5" y="300" as="targetPoint" />
          </mxGeometry>
        </mxCell>
        <mxCell id="gT0HJ77mpQGrngc1Bmo7-15" value="alt" style="text;html=1;align=center;verticalAlign=middle;resizable=0;points=[];autosize=1;strokeColor=none;fillColor=none;" vertex="1" parent="1">
          <mxGeometry x="60" y="430" width="40" height="30" as="geometry" />
        </mxCell>
        <mxCell id="gT0HJ77mpQGrngc1Bmo7-16" value="Credenciais Corretas" style="text;html=1;align=center;verticalAlign=middle;resizable=0;points=[];autosize=1;strokeColor=none;fillColor=none;" vertex="1" parent="1">
          <mxGeometry x="145" y="440" width="140" height="30" as="geometry" />
        </mxCell>
        <mxCell id="gT0HJ77mpQGrngc1Bmo7-17" value="Credenciais Erradas" style="text;html=1;align=center;verticalAlign=middle;resizable=0;points=[];autosize=1;strokeColor=none;fillColor=none;" vertex="1" parent="1">
          <mxGeometry x="160" y="520" width="130" height="30" as="geometry" />
        </mxCell>
        <mxCell id="gT0HJ77mpQGrngc1Bmo7-18" value="" style="endArrow=classic;html=1;rounded=0;" edge="1" parent="1">
          <mxGeometry width="50" height="50" relative="1" as="geometry">
            <mxPoint x="850" y="499.05" as="sourcePoint" />
            <mxPoint x="100" y="499.05" as="targetPoint" />
          </mxGeometry>
        </mxCell>
        <mxCell id="gT0HJ77mpQGrngc1Bmo7-19" value="Sistema de Notificação" style="rounded=0;whiteSpace=wrap;html=1;" vertex="1" parent="1">
          <mxGeometry x="790" y="260" width="130" height="40" as="geometry" />
        </mxCell>
        <mxCell id="gT0HJ77mpQGrngc1Bmo7-20" value="" style="endArrow=none;dashed=1;html=1;dashPattern=1 3;strokeWidth=2;rounded=0;" edge="1" parent="1">
          <mxGeometry width="50" height="50" relative="1" as="geometry">
            <mxPoint x="855" y="940" as="sourcePoint" />
            <mxPoint x="854.52" y="300" as="targetPoint" />
          </mxGeometry>
        </mxCell>
        <mxCell id="gT0HJ77mpQGrngc1Bmo7-21" value="" style="endArrow=classic;html=1;rounded=0;" edge="1" parent="1">
          <mxGeometry width="50" height="50" relative="1" as="geometry">
            <mxPoint x="660" y="420" as="sourcePoint" />
            <mxPoint x="850" y="420" as="targetPoint" />
          </mxGeometry>
        </mxCell>
        <mxCell id="gT0HJ77mpQGrngc1Bmo7-22" value="notificação()" style="text;html=1;align=center;verticalAlign=middle;resizable=0;points=[];autosize=1;strokeColor=none;fillColor=none;" vertex="1" parent="1">
          <mxGeometry x="710" y="390" width="90" height="30" as="geometry" />
        </mxCell>
        <mxCell id="gT0HJ77mpQGrngc1Bmo7-23" value="&quot;Usuário Logado&quot;" style="text;html=1;align=center;verticalAlign=middle;resizable=0;points=[];autosize=1;strokeColor=none;fillColor=none;" vertex="1" parent="1">
          <mxGeometry x="165" y="480" width="120" height="30" as="geometry" />
        </mxCell>
        <mxCell id="gT0HJ77mpQGrngc1Bmo7-24" value="&quot;Usuario ou Senha Incorretos, tente novamente&quot;" style="text;html=1;align=center;verticalAlign=middle;resizable=0;points=[];autosize=1;strokeColor=none;fillColor=none;" vertex="1" parent="1">
          <mxGeometry x="120" y="550" width="280" height="30" as="geometry" />
        </mxCell>
        <mxCell id="gT0HJ77mpQGrngc1Bmo7-25" value="" style="endArrow=none;dashed=1;html=1;dashPattern=1 3;strokeWidth=2;rounded=0;entryX=0.003;entryY=0.682;entryDx=0;entryDy=0;entryPerimeter=0;exitX=0.997;exitY=0.688;exitDx=0;exitDy=0;exitPerimeter=0;" edge="1" parent="1">
          <mxGeometry width="50" height="50" relative="1" as="geometry">
            <mxPoint x="727.9899999999998" y="515.51" as="sourcePoint" />
            <mxPoint x="62.00999999999999" y="514.49" as="targetPoint" />
          </mxGeometry>
        </mxCell>
        <mxCell id="gT0HJ77mpQGrngc1Bmo7-26" value="" style="endArrow=classic;html=1;rounded=0;" edge="1" parent="1">
          <mxGeometry width="50" height="50" relative="1" as="geometry">
            <mxPoint x="850" y="570" as="sourcePoint" />
            <mxPoint x="100" y="570" as="targetPoint" />
          </mxGeometry>
        </mxCell>
        <mxCell id="gT0HJ77mpQGrngc1Bmo7-28" value="&lt;font style=&quot;font-size: 24px;&quot;&gt;REALIZAR LOGIN&lt;/font&gt;" style="text;html=1;align=center;verticalAlign=middle;resizable=0;points=[];autosize=1;strokeColor=none;fillColor=none;" vertex="1" parent="1">
          <mxGeometry x="420" y="320" width="220" height="40" as="geometry" />
        </mxCell>
        <mxCell id="gT0HJ77mpQGrngc1Bmo7-29" value="&lt;font style=&quot;font-size: 24px;&quot;&gt;CADASTRAR DESPESA&lt;/font&gt;" style="text;html=1;align=center;verticalAlign=middle;resizable=0;points=[];autosize=1;strokeColor=none;fillColor=none;" vertex="1" parent="1">
          <mxGeometry x="385" y="610" width="290" height="40" as="geometry" />
        </mxCell>
        <mxCell id="gT0HJ77mpQGrngc1Bmo7-30" value="" style="endArrow=classic;html=1;rounded=0;" edge="1" parent="1">
          <mxGeometry width="50" height="50" relative="1" as="geometry">
            <mxPoint x="100" y="680" as="sourcePoint" />
            <mxPoint x="650" y="680" as="targetPoint" />
          </mxGeometry>
        </mxCell>
        <mxCell id="gT0HJ77mpQGrngc1Bmo7-31" value="cadastrarDespesa(String tipo, int valor)" style="text;html=1;align=center;verticalAlign=middle;resizable=0;points=[];autosize=1;strokeColor=none;fillColor=none;" vertex="1" parent="1">
          <mxGeometry x="125" y="650" width="230" height="30" as="geometry" />
        </mxCell>
        <mxCell id="gT0HJ77mpQGrngc1Bmo7-34" value="" style="endArrow=classic;html=1;rounded=0;" edge="1" parent="1">
          <mxGeometry width="50" height="50" relative="1" as="geometry">
            <mxPoint x="660" y="710" as="sourcePoint" />
            <mxPoint x="850" y="710" as="targetPoint" />
          </mxGeometry>
        </mxCell>
        <mxCell id="gT0HJ77mpQGrngc1Bmo7-35" value="notificação()" style="text;html=1;align=center;verticalAlign=middle;resizable=0;points=[];autosize=1;strokeColor=none;fillColor=none;" vertex="1" parent="1">
          <mxGeometry x="710" y="680" width="90" height="30" as="geometry" />
        </mxCell>
        <mxCell id="gT0HJ77mpQGrngc1Bmo7-36" value="" style="endArrow=classic;html=1;rounded=0;" edge="1" parent="1">
          <mxGeometry width="50" height="50" relative="1" as="geometry">
            <mxPoint x="850" y="750" as="sourcePoint" />
            <mxPoint x="100" y="750" as="targetPoint" />
          </mxGeometry>
        </mxCell>
        <mxCell id="gT0HJ77mpQGrngc1Bmo7-37" value="&quot;Despesa Cadastrada&quot;" style="text;html=1;align=center;verticalAlign=middle;resizable=0;points=[];autosize=1;strokeColor=none;fillColor=none;" vertex="1" parent="1">
          <mxGeometry x="180" y="730" width="140" height="30" as="geometry" />
        </mxCell>
        <mxCell id="gT0HJ77mpQGrngc1Bmo7-39" value="&lt;font style=&quot;font-size: 24px;&quot;&gt;VISUALIZAR RELATORIO&lt;/font&gt;" style="text;html=1;align=center;verticalAlign=middle;resizable=0;points=[];autosize=1;strokeColor=none;fillColor=none;" vertex="1" parent="1">
          <mxGeometry x="375" y="770" width="310" height="40" as="geometry" />
        </mxCell>
        <mxCell id="gT0HJ77mpQGrngc1Bmo7-40" value="" style="endArrow=classic;html=1;rounded=0;" edge="1" parent="1">
          <mxGeometry width="50" height="50" relative="1" as="geometry">
            <mxPoint x="100" y="850" as="sourcePoint" />
            <mxPoint x="650" y="850" as="targetPoint" />
          </mxGeometry>
        </mxCell>
        <mxCell id="gT0HJ77mpQGrngc1Bmo7-41" value="gerarRelatorio()" style="text;html=1;align=center;verticalAlign=middle;resizable=0;points=[];autosize=1;strokeColor=none;fillColor=none;" vertex="1" parent="1">
          <mxGeometry x="185" y="820" width="110" height="30" as="geometry" />
        </mxCell>
        <mxCell id="gT0HJ77mpQGrngc1Bmo7-44" value="" style="endArrow=classic;html=1;rounded=0;" edge="1" parent="1">
          <mxGeometry width="50" height="50" relative="1" as="geometry">
            <mxPoint x="650" y="920" as="sourcePoint" />
            <mxPoint x="100" y="920" as="targetPoint" />
          </mxGeometry>
        </mxCell>
        <mxCell id="gT0HJ77mpQGrngc1Bmo7-45" value="relatorioDeDespesas" style="text;html=1;align=center;verticalAlign=middle;resizable=0;points=[];autosize=1;strokeColor=none;fillColor=none;" vertex="1" parent="1">
          <mxGeometry x="180" y="900" width="140" height="30" as="geometry" />
        </mxCell>
      </root>
    </mxGraphModel>
  </diagram>
</mxfile>
